<svg xmlns="http://www.w3.org/2000/svg" width="104.988" height="97.5" viewBox="0 0 104.988 97.5"><path d="M60-9.434A1.9,1.9,0,0,1,58.125-7.5H46.875A1.9,1.9,0,0,1,45-9.434V-20.566A1.9,1.9,0,0,1,46.875-22.5h11.25A1.9,1.9,0,0,1,60-20.566Zm-.117-21.914c-.059.762-.937,1.348-1.992,1.348H47.051c-1.113,0-1.992-.586-1.992-1.348l-1-26.777a1.633,1.633,0,0,1,.586-1.23A2.412,2.412,0,0,1,46.055-60H58.945a2.412,2.412,0,0,1,1.406.645,1.417,1.417,0,0,1,.586,1.113Zm-.82-54.727A7.456,7.456,0,0,0,52.5-90a7.456,7.456,0,0,0-6.563,3.926l-45,82.5a7.387,7.387,0,0,0,.117,7.383A7.5,7.5,0,0,0,7.5,7.5h90a7.5,7.5,0,0,0,6.445-3.691,7.387,7.387,0,0,0,.117-7.383Z" transform="translate(-0.006 90)" fill="#f36c68"/></svg>