<svg xmlns="http://www.w3.org/2000/svg" width="74.386" height="57.013" viewBox="0 0 74.386 57.013"><path d="M80.193-46.551a4.654,4.654,0,0,0-1.344-3.263l-6.527-6.527a4.654,4.654,0,0,0-3.263-1.344A4.654,4.654,0,0,0,65.8-56.342L34.314-24.811,20.2-38.969a4.654,4.654,0,0,0-3.263-1.344,4.654,4.654,0,0,0-3.263,1.344L7.151-32.442a4.654,4.654,0,0,0-1.344,3.263,4.654,4.654,0,0,0,1.344,3.263L24.523-8.542,31.05-2.016A4.654,4.654,0,0,0,34.314-.672a4.654,4.654,0,0,0,3.263-1.344L44.1-8.542,78.849-43.288a4.654,4.654,0,0,0,1.344-3.263Z" transform="translate(-5.807 57.685)" fill="#f36c68"/></svg>