<svg xmlns="http://www.w3.org/2000/svg" width="274.138" height="66.475" viewBox="0 0 274.138 66.475"><g transform="translate(-608.49 -1306.939)"><path d="M695.6,2618.436c.564-1.237.617-1.752.617-5.026-1.461.235-3.443.526-5.867,1.043-4.17.9-4.883,2.466-4.883,4.038,0,1.795,1.427,3.313,4.225,3.313C692.291,2621.8,694.521,2620.756,695.6,2618.436Zm5.155,6.187-3.923.016a26.626,26.626,0,0,1-.446-3.3,9.659,9.659,0,0,1-7.5,3.613c-4.358,0-7.594-2.591-7.594-6.371a6.131,6.131,0,0,1,.992-3.371c1.286-1.889,3.661-3.408,10.337-3.93l3.544-.29v-.56c0-2.326,0-6.211-5-6.211-3.146,0-4.21,1.527-4.58,2.91l-3.464-1.449c.061-.125.117-.251.186-.371,1.334-2.455,3.943-3.979,7.722-3.979a11.128,11.128,0,0,1,6.512,1.9c2.5,1.892,2.449,5.623,2.449,5.623l.14,11.494A18,18,0,0,0,700.755,2624.623Zm125.089-6.187c.562-1.237.607-1.752.607-5.026-1.465.235-3.441.526-5.867,1.043-4.159.9-4.873,2.466-4.873,4.038,0,1.795,1.426,3.313,4.215,3.313C822.535,2621.8,824.753,2620.756,825.844,2618.436Zm5.146,6.187-3.921.016a26.191,26.191,0,0,1-.45-3.3,9.624,9.624,0,0,1-7.5,3.613c-4.355,0-7.583-2.591-7.583-6.371a6.131,6.131,0,0,1,.992-3.371c1.287-1.889,3.664-3.408,10.333-3.93l3.547-.29v-.56c0-2.326,0-6.211-5-6.211-3.143,0-4.222,1.527-4.576,2.91l-3.471-1.449c.051-.125.122-.251.185-.371,1.332-2.455,3.946-3.979,7.72-3.979a11.16,11.16,0,0,1,6.525,1.9c2.49,1.892,2.43,5.623,2.43,5.623l.156,11.494S830.5,2623.682,830.99,2624.623Zm-42.755-4.3a9.339,9.339,0,0,1-8.642,4.69c-6.618,0-10.421-4.5-10.421-12.045,0-8.414,5.555-11.641,10.278-11.641,4.12,0,8.058,2.278,9.385,7.9a20.339,20.339,0,0,1,.424,4.543h-16.1c-.1,3.749,1.471,8.49,6.767,8.4a5.337,5.337,0,0,0,4.654-2.556Zm-14.984-9.25h11.881c-.327-5.859-3.709-6.857-5.96-6.857C775.956,2604.217,773.676,2606.578,773.251,2611.074Zm-27.79,9.25a9.351,9.351,0,0,1-8.635,4.69c-6.629,0-10.437-4.5-10.437-12.045,0-8.414,5.559-11.641,10.288-11.641,4.111,0,8.056,2.278,9.382,7.9a20.43,20.43,0,0,1,.422,4.543h-16.1c-.1,3.749,1.472,8.49,6.766,8.4a5.338,5.338,0,0,0,4.655-2.556Zm-14.987-9.25h11.887c-.333-5.859-3.715-6.857-5.967-6.857C733.179,2604.217,730.9,2606.578,730.474,2611.074Zm76.62,8.117a5.321,5.321,0,0,1-5.175,2.925c-2.53,0-6.778-1.59-6.778-8.981,0-1.99.362-9.035,6.541-9.035a5.291,5.291,0,0,1,5.232,3.168l3.521-1.469c-2.173-3.619-6.088-4.463-8.887-4.463-7.146,0-10.592,5.746-10.592,12.083,0,5.484,2.985,11.595,10.915,11.595a9.466,9.466,0,0,0,8.546-4.432Zm-58.447-17v22.433h3.763V2611.9c0-1.66,0-3.361,1.659-5.013a5.8,5.8,0,0,1,4.284-1.7,4.746,4.746,0,0,1,4.806,3.068,12.405,12.405,0,0,1,.238,3.688v12.679h3.753v-13.3a16.68,16.68,0,0,0-.378-4.591,7.393,7.393,0,0,0-7.374-5.122,7.88,7.88,0,0,0-6.988,3.993v-3.416Zm-45.232-7.053v3.633h16.766L703.4,2620.783v3.84h21.663v-3.54h-17.11l16.688-22.272v-3.674Zm-33.7,7.053v22.433h3.76v-10.317c0-1.919-.051-4.2.951-5.825,1.223-1.992,3.026-2.743,6.725-2.769v-3.887c-1.523.054-5.54.147-7.676,4.38v-4.015Zm-7.475-7.065-3.881,1.622v5.443h-3.554v3.139h3.554v14.4c-.051,2.929-.051,5.043,4.306,5.043a24.47,24.47,0,0,0,3.647-.38v-3.1a9.753,9.753,0,0,1-2.457.514c-1.615,0-1.615-1.132-1.615-3.777v-12.7h4.072v-3.139h-4.072Zm-12.193,23.251c0,2.4-1.952,3.679-5.288,3.679-2.688,0-4.492-.756-5.494-2.494l-3.975.7c1.549,3.166,4.77,4.684,9.313,4.684,6.161,0,9.375-3.415,9.375-7.046,0-4.673-4.3-5.94-9.255-6.939-2.4-.479-5.206-1.369-5.206-3.484,0-1.51,1.476-3.262,4.427-3.262a5.617,5.617,0,0,1,5.092,2.869l3.494-1.455c-1.6-3.059-4.8-4.3-8.156-4.3-5.184,0-8.621,2.557-8.621,6.621,0,4.617,3.963,5.522,7.793,6.357C646.849,2615.016,650.05,2615.833,650.05,2618.376Zm-19.635,6.247h4.14l-10.738-29.5h-4.093l-11.234,29.5h4.178l3.3-9.041h11.236Zm-13.2-12.351,4.518-12.252,4.3,12.252Z" transform="translate(0 -1252)" fill="#8b034f"/><path d="M873.06,2586.579c-4.419-1.534-15.334-5.6-26.86-7.123-3.963-.52-5.558.885-3.923,4.666,1.605,3.726,5.781,9.972,10.149,14.657s9.11,5.946,10.613-1.273c.058-.256.108-.518.158-.768a52.1,52.1,0,0,0,.779-5.234c-1.942-.877-4.113-1.814-6.284-2.734.116,1.659.312,4.517.411,6.717.013.281.026.558.031.82.135,3.556-1.077,3.551-3.107,2.1-2.366-1.687-9.592-11.242-10.418-15.459-.039-.281.094-.289.24-.242l.173.073.013,0h.006c1.627.643,7.06,2.786,12.585,5.116,2.2.924,4.417,1.878,6.408,2.775,1.953.891,3.694,1.714,5,2.413,2.388,1.274,3.317,2.146,2.314,3.165-4.966,5.043-22.3,12.216-28.293,21.084a.3.3,0,0,0-.063.084,2.536,2.536,0,0,0-.2.315.47.47,0,0,1-.05.095,7.82,7.82,0,0,0-.869,2.639c-.252,1.94.757,3.706,3.541,4.454a12.384,12.384,0,0,0,2.361.448c.146.011.324.026.493.031,5.345.258,19.216-2.777,23.449-4.659,4.35-1.934,3.053-3.86,1.787-4.867-.945-.755-5.807-3.458-8.158-4.766l-1.752,1.121a69.344,69.344,0,0,1,6.539,4.382c.355.288.157.618-.372.651-.152.021-.268.023-.434.035-3.807.266-11.028.77-14.412.95-.5.032-1.05.062-1.363.072a21.948,21.948,0,0,1,2.25-1.826c7.237-5.1,19.319-12.254,22.872-15.335C881.291,2598.889,888.441,2591.955,873.06,2586.579Zm-17.574,19.165c-.581.375-1.17.738-1.752,1.127-6.757-3.754-21.272-10.99-22.53-11.642-1.352-.7-3.7-1.643-3.394-3.879.41-3.137,5.855-10.008,8.165-12.828,12.524-15.317,18.132-20.041,21.855-19.549,3.968.522,6.169,4.616,6.433,23.818-2.208-.682-4.659-1.389-7.261-2.041-.206-2.787-.731-6.994-.929-8.455-.22-1.637-.538-2.256-1.21-2.35-.742-.093-2.57,1.657-4.226,3.352-.756.771-2.885,2.924-5.228,5.293-1.969-.128-3.279.277-4,1.236a3.6,3.6,0,0,0-.364,3.153c-1.264,1.268-2.352,2.363-3.045,3.048-2.619,2.608-5.376,4.763-5.518,5.818-.112.862,1.214,1.762,3.089,2.878C840.172,2597.465,851.486,2603.588,855.486,2605.744Z" transform="translate(0 -1252)" fill="#f9b000"/></g></svg>