<svg xmlns="http://www.w3.org/2000/svg" width="232.476" height="70.217" viewBox="0 0 232.476 70.217"><g transform="translate(-977.719 -1305.686)"><path d="M992.842,2619.351c-4.807-3.472-7.349-6.008-9.753-9.687a34.327,34.327,0,0,1-5.37-18.315,33.585,33.585,0,1,1,59.951,20.858c-1.891,2.408-3.516,3.817-7.915,7.144V2599.69h3.326v13.438a38.856,38.856,0,0,0,4.878-6.792,31.332,31.332,0,0,0,3.826-15.064,30.48,30.48,0,1,0-60.954.224c0,7.843,2.757,14.779,8.631,21.632V2599.69h3.38Zm6.661,3.4a20.429,20.429,0,0,1-3.323-1.486V2599.69H999.5Zm6.721,1.766a8.78,8.78,0,0,1-1.71-.362c-.352-.066-.485-.066-1.619-.343v-45.97h3.329Zm6.7.272a7.043,7.043,0,0,1-1.329.072,13.956,13.956,0,0,1-1.977-.072v-46.947h3.306Zm6.726-1.059a26.307,26.307,0,0,1-3.322.847v-46.735h3.322Zm.072-48.362-8.408-6.509-8.418,6.509-1.844-2.4,10.262-7.99,10.25,7.99Zm6.719,45.9c-1.063.5-1.7.777-3.407,1.549V2599.69h3.407Z" transform="translate(0 -1252)" fill="#003d7c"/><path d="M1063.5,2571.825v-8.973a5.515,5.515,0,0,1,2.184-.434c2.54,0,4.039,1.689,4.039,4.539,0,3.315-1.426,4.868-4.463,4.868Zm-1.627-10.744h-4.323v1.491l2.41.409v20.595l-2.41.41v1.434h4.1c.708,0,1.625,0,2.824.062h2.209a12.808,12.808,0,0,0,4.66-.564,6.172,6.172,0,0,0,3.816-5.871c0-3.471-1.978-5.8-5.661-6.57,2.9-1.431,4.25-3.2,4.25-5.68,0-3.6-2.691-5.932-6.726-5.932-.279,0-1.121.078-2.2.151Zm1.627,12.431h1.543c4.115,0,6.018,1.64,6.018,5.111a4.968,4.968,0,0,1-5.377,5.363,3.694,3.694,0,0,1-2.184-.552Zm21.492-5.776c-4.235,0-7.15,3.807-7.15,9.317,0,5.17,2.766,8.706,6.8,8.706,4.225,0,7.123-3.75,7.123-9.329C1091.757,2571.193,1089,2567.736,1084.989,2567.736Zm-.147,1.692c1.978,0,3.1,2.327,3.1,6.562,0,5.309-1.125,8-3.238,8-1.975,0-3.118-2.546-3.118-7.068C1081.589,2572.179,1082.8,2569.428,1084.842,2569.428Zm22.047,7.067c-.067-5.86-1.968-8.7-5.939-8.7-4.1,0-6.576,3.538-6.576,9.408,0,5.516,2.4,8.554,6.65,8.554,2.759,0,4.022-.909,5.8-4.1l-1.554-.638c-1.069,1.624-1.985,2.25-3.251,2.25-2.548,0-3.745-1.976-4.1-6.78Zm-8.974-1.692c.42-3.684,1.27-5.3,2.89-5.3s2.338,1.483,2.478,5.3Zm-32.164,46.745v-1.5l-2.054-.417v-20.592l2.137-.413v-1.49H1057.7v1.564l2.256.339v20.663l-2.256.414v1.429Zm18.37,0v-1.5l-1.815-.417v-10.97c0-2.89-1.5-4.6-4.18-4.6-1.55,0-2.542.432-4.66,2.054V2604h-1l-4.377,1.144v1.4l2.035.283v12.871l-2.035.414v1.429h7.276v-1.5l-1.834-.417V2608.1a4.966,4.966,0,0,1,3.326-1.546c1.346,0,1.975.912,1.975,2.9v10.323l-1.836.349v1.429Zm16.55-15.153v-2.041l-2.9.068h-.641a2.435,2.435,0,0,1-.614.076,5.806,5.806,0,0,1-1.577-.285,8.73,8.73,0,0,0-2.255-.348,5.756,5.756,0,0,0-5.865,5.859c0,2.2.777,3.55,2.894,4.891-2.259,1.409-3.191,2.55-3.191,3.819,0,.98.572,1.617,1.978,2.183-2.044,1.36-2.735,2.27-2.735,3.685,0,2.194,2.469,3.6,6.281,3.6,5.084,0,8.4-2.4,8.4-6.144,0-2.62-1.549-3.888-4.865-4.035l-4.238-.228c-1.061-.056-1.493-.262-1.493-.685s.5-1,1.339-1.557a6.02,6.02,0,0,0,1.911.273,5.646,5.646,0,0,0,5.946-5.66,4.959,4.959,0,0,0-1.277-3.472Zm-7.845-1.045c1.691,0,2.544,1.484,2.544,4.591,0,2.615-.784,3.972-2.421,3.972-1.685,0-2.378-1.357-2.378-4.317C1090.571,2606.69,1091.264,2605.35,1092.826,2605.35Zm-1.069,15.629c5.456.339,6.223.64,6.223,2.115,0,1.692-2.18,2.9-5.09,2.9-2.319,0-3.738-.928-3.738-2.463a3.221,3.221,0,0,1,1.278-2.626Z" transform="translate(0 -1252)" fill="#003d7c"/><path d="M1106.1,2610.938c.44-3.748,1.353-5.311,2.969-5.311,1.641,0,2.344,1.622,2.413,5.311Zm18.752-25.518v-1.5l-1.839-.343v-10.69c0-3.179-1.412-4.794-4.178-4.794-1.485,0-2.6.488-4.6,2.035v-10.671h-.974l-4.394.919v1.2l1.985.416v21.582l-2.119.41v1.434h7.219v-1.5l-1.717-.343v-11.4c1.422-1.2,2.2-1.544,3.255-1.544,1.5,0,2.05.908,2.05,3.456v9.54l-1.688.355v1.434Zm7.7-17.488h-1.052l-4.248,1.125v1.149l2.048.359v13.011l-2.048.41v1.434h7.854v-1.5l-2.486-.343V2574.3a4.074,4.074,0,0,1,2.2-2.97l1.842.982a2.7,2.7,0,0,0,1.336-2.111,1.9,1.9,0,0,0-2.056-2.051c-1.279,0-1.979.623-3.393,3.038Zm10.532-8.476a2.262,2.262,0,1,0,2.271,2.254A2.225,2.225,0,0,0,1143.09,2559.456Zm3.955,25.964v-1.5l-1.977-.343v-15.484h-.835l-4.465,1.1v1.218l1.906.431v12.73l-1.906.41v1.434Zm-31.879,27.136a19.6,19.6,0,0,0-.5-4.377c-.838-2.752-2.672-4.249-5.5-4.249-4.116,0-6.588,3.472-6.588,9.344,0,5.449,2.408,8.619,6.654,8.619,2.764,0,4.247-1.051,5.865-4.1l-1.555-.623c-1.053,1.621-1.982,2.249-3.31,2.249-2.548,0-3.759-1.974-4.125-6.858Zm9.405,8.992v-1.5l-1.905-.417V2595.52h-.922l-4.448,1v1.2l1.964.206v21.786l-2.038.414v1.429Zm18.454,0v-1.5l-1.909-.417v-10.89c0-2.9-1.483-4.531-4.108-4.531-1.619,0-2.748.51-4.654,2.062V2595.52h-.931l-4.443,1v1.2l1.98.355v21.637l-2.054.414v1.429h7.131v-1.5l-1.683-.417v-11.325c1.413-1.192,2.25-1.619,3.245-1.619,1.485,0,2.039.927,2.039,3.462v9.618l-1.687.349v1.429Zm14.849-8.992a20.239,20.239,0,0,0-.492-4.377c-.86-2.752-2.688-4.249-5.532-4.249-4.086,0-6.563,3.472-6.563,9.344,0,5.449,2.4,8.619,6.651,8.619,2.756,0,4.23-1.051,5.866-4.1l-1.559-.623c-1.055,1.621-1.985,2.249-3.323,2.249-2.54,0-3.745-1.974-4.1-6.858Zm-9.057-1.618c.428-3.748,1.355-5.311,2.964-5.311,1.637,0,2.352,1.622,2.4,5.311Z" transform="translate(0 -1252)" fill="#003d7c"/><path d="M1174.213,2569.2c1.688,0,2.537,1.5,2.537,4.618,0,2.615-.779,3.959-2.41,3.959-1.68,0-2.4-1.344-2.4-4.313C1171.935,2570.565,1172.66,2569.2,1174.213,2569.2Zm-8.632,16.223v-1.5l-1.838-.429v-10.949c0-2.9-1.481-4.609-4.176-4.609-1.547,0-2.541.433-4.66,2.066v-2.123h-.986l-4.384,1.128v1.412l2.04.283v12.878l-2.04.41v1.434h7.273v-1.5l-1.841-.429v-11.513a5.061,5.061,0,0,1,3.326-1.562c1.336,0,1.975.92,1.975,2.9v10.316l-1.832.355v1.434Zm16.47-15.148v-2.043l-2.894.062h-.63a2.681,2.681,0,0,1-.641.074,6.114,6.114,0,0,1-1.556-.273,8.3,8.3,0,0,0-2.254-.356,5.756,5.756,0,0,0-5.878,5.854c0,2.2.779,3.536,2.915,4.878-2.273,1.419-3.2,2.557-3.2,3.755,0,.993.571,1.7,1.978,2.265-1.978,1.271-2.756,2.262-2.756,3.675,0,2.189,2.478,3.6,6.289,3.6,5.1,0,8.411-2.4,8.411-6.16,0-2.6-1.553-3.887-4.862-4.011l-4.261-.228c-1.054-.07-1.46-.271-1.46-.76,0-.363.477-.927,1.335-1.481a6.1,6.1,0,0,0,1.892.265,5.65,5.65,0,0,0,5.945-5.654,4.912,4.912,0,0,0-1.267-3.467Zm-10.244,14.486c6.994.426,7.56.569,7.56,2.211,0,1.623-2.185,2.9-5.088,2.9-2.344,0-3.754-.924-3.754-2.487A3.264,3.264,0,0,1,1171.807,2584.758Zm24.749-8.263c-.074-5.86-1.993-8.7-5.941-8.7-4.112,0-6.587,3.538-6.587,9.408,0,5.516,2.421,8.554,6.653,8.554,2.757,0,4.028-.909,5.8-4.1l-1.555-.638c-1.07,1.624-1.978,2.25-3.254,2.25-2.542,0-3.759-1.976-4.1-6.78Zm-8.986-1.692c.418-3.684,1.271-5.3,2.9-5.3,1.615,0,2.32,1.483,2.476,5.3Zm17.182-6.871h-1.064l-4.239,1.125v1.149l2.047.359v13.011l-2.047.41v1.434h7.85v-1.5l-2.484-.343V2574.3a4.05,4.05,0,0,1,2.207-2.97l1.84.982a2.693,2.693,0,0,0,1.333-2.111,1.894,1.894,0,0,0-2.05-2.051c-1.268,0-1.979.623-3.393,3.038ZM1164.1,2595.52a2.379,2.379,0,0,0-2.411,2.342,2.238,2.238,0,0,0,2.265,2.249,2.352,2.352,0,0,0,2.321-2.329A2.262,2.262,0,0,0,1164.1,2595.52Zm3.809,26.028v-1.5l-1.978-.417v-15.421h-.855l-4.442,1.137v1.146l1.9.4v12.806l-1.9.414v1.429Zm27.715,0v-1.5l-1.989-.417v-10.4c0-3.531-1.264-5.023-4.307-5.023-1.836,0-3.033.636-4.869,2.338a4.319,4.319,0,0,0-3.957-2.268,7,7,0,0,0-4.814,2.053V2604h-.919l-4.463,1.144v1.189l2.066.354v13.015l-2.066.414v1.429h7.234v-1.5l-1.643-.417v-11.39a4.279,4.279,0,0,1,3.187-1.623c1.554,0,2.259,1,2.259,3.188v9.9l-1.98.414v1.429h7.136v-1.5l-1.769-.417v-11.325c1.424-1.256,2.2-1.688,3.334-1.688,1.477,0,2.125.923,2.125,3.246v9.838l-1.921.414v1.429Z" transform="translate(0 -1252)" fill="#003d7c"/></g></svg>