<svg xmlns="http://www.w3.org/2000/svg" width="290.798" height="151.591" viewBox="0 0 290.798 151.591"><g transform="translate(-936.181 -1065.001)"><path d="M966.081,2400.649c-6.691-16.245-9.048-33.067-9.048-50.418a134.012,134.012,0,0,1,1.726-22.354h6.383a99.353,99.353,0,0,0-2.019,21.382,161.372,161.372,0,0,0,6.223,45.581,161.448,161.448,0,0,0,6.227-45.581,99.674,99.674,0,0,0-2.018-21.382h6.382a134.017,134.017,0,0,1,1.725,22.354c0,17.351-2.355,34.176-9.05,50.418Z" transform="translate(0 -1252)" fill="#f08013"/><path d="M992.162,2345.783a1.42,1.42,0,1,1-.1,2.008A1.422,1.422,0,0,1,992.162,2345.783Z" transform="translate(0 -1252)" fill="#f08013"/><path d="M992.162,2350.186a1.418,1.418,0,1,1-.1,2,1.419,1.419,0,0,1,.1-2Z" transform="translate(0 -1252)" fill="#f08013"/><path d="M995.159,2353.619a1.5,1.5,0,1,1-.007.007Z" transform="translate(0 -1252)" fill="#f08013"/><path d="M991.267,2365.1a1.417,1.417,0,1,1-.093,2A1.414,1.414,0,0,1,991.267,2365.1Z" transform="translate(0 -1252)" fill="#f08013"/><path d="M991.116,2369.551a1.418,1.418,0,1,1-.2,2A1.419,1.419,0,0,1,991.116,2369.551Z" transform="translate(0 -1252)" fill="#f08013"/><path d="M993.984,2373.121a1.419,1.419,0,1,1-.218,1.995l0,0A1.418,1.418,0,0,1,993.984,2373.121Z" transform="translate(0 -1252)" fill="#f08013"/><path d="M994.271,2362.354a1.485,1.485,0,1,1-.01.01Z" transform="translate(0 -1252)" fill="#f08013"/><path d="M988.375,2384.229a1.405,1.405,0,1,1-.046.032A.537.537,0,0,1,988.375,2384.229Z" transform="translate(0 -1252)" fill="#f08013"/><path d="M988.036,2389.156a1.418,1.418,0,1,1-.383,1.967l0-.006A1.413,1.413,0,0,1,988.036,2389.156Z" transform="translate(0 -1252)" fill="#f08013"/><path d="M991.713,2381.833a1.631,1.631,0,1,1-.013.012A.05.05,0,0,0,991.713,2381.833Z" transform="translate(0 -1252)" fill="#f08013"/><path d="M998.565,2339.141a1.415,1.415,0,1,1,.657,1.892A1.416,1.416,0,0,1,998.565,2339.141Z" transform="translate(0 -1252)" fill="#f08013"/><path d="M999.728,2334.729a1.42,1.42,0,1,1,1.353,1.486h0a1.417,1.417,0,0,1-1.351-1.484Z" transform="translate(0 -1252)" fill="#f08013"/><path d="M995.7,2342.5a1.418,1.418,0,1,1-.093,2.005,1.416,1.416,0,0,1,.093-2.005Z" transform="translate(0 -1252)" fill="#f08013"/><path d="M946.58,2345.783a1.419,1.419,0,1,0,.094,2.008A1.419,1.419,0,0,0,946.58,2345.783Z" transform="translate(0 -1252)" fill="#f08013"/><path d="M946.58,2350.186a1.419,1.419,0,1,0,.094,2,1.418,1.418,0,0,0-.094-2Z" transform="translate(0 -1252)" fill="#f08013"/><path d="M943.581,2353.619a1.419,1.419,0,1,0,.1,2.007v0a1.413,1.413,0,0,0-.088-2Z" transform="translate(0 -1252)" fill="#f08013"/><path d="M947.47,2365.1a1.494,1.494,0,1,0,.006.006Z" transform="translate(0 -1252)" fill="#f08013"/><path d="M947.624,2369.551a1.382,1.382,0,1,0,.005,0Z" transform="translate(0 -1252)" fill="#f08013"/><path d="M944.755,2373.121a1.419,1.419,0,1,0,.224,1.995v0a1.414,1.414,0,0,0-.218-1.988Z" transform="translate(0 -1252)" fill="#f08013"/><path d="M944.472,2362.354a1.338,1.338,0,1,0,.006,0Z" transform="translate(0 -1252)" fill="#f08013"/><path d="M950.369,2384.229a1.372,1.372,0,1,0,.015.01Z" transform="translate(0 -1252)" fill="#f08013"/><path d="M950.7,2389.156a1.417,1.417,0,1,0,.387,1.967l0-.006A1.415,1.415,0,0,0,950.7,2389.156Z" transform="translate(0 -1252)" fill="#f08013"/><path d="M947.028,2381.833a1.969,1.969,0,1,0,.006.007Z" transform="translate(0 -1252)" fill="#f08013"/><path d="M940.178,2339.141a1.418,1.418,0,1,0-.658,1.893h0A1.417,1.417,0,0,0,940.178,2339.141Z" transform="translate(0 -1252)" fill="#f08013"/><path d="M939.013,2334.729a1.417,1.417,0,1,0-1.346,1.486,1.417,1.417,0,0,0,1.346-1.486Z" transform="translate(0 -1252)" fill="#f08013"/><path d="M943.04,2342.5a1.418,1.418,0,1,0,.091,2.005A1.421,1.421,0,0,0,943.04,2342.5Z" transform="translate(0 -1252)" fill="#f08013"/><path d="M948.71,2320.979a1.206,1.206,0,1,1,.076,1.705,1.2,1.2,0,0,1-.076-1.705Zm11.4,63.065-8.085-5.707a1.492,1.492,0,0,1-.243-2.1l.006-.007,5.411-6.332a3.01,3.01,0,0,0-.2-4.253l-6.773-6.167a1.5,1.5,0,0,1-.1-2.117l6.176-6.77a3,3,0,0,0-.189-4.245l-.007-.006-8.971-8.2a3.112,3.112,0,0,1-.2-4.243l9.343-12.472a2.5,2.5,0,0,0-.166-3.535,4.122,4.122,0,0,0-3.355-.817,15.544,15.544,0,0,0-13.806,17.1c.018.168.037.334.06.5.487,4.485,2.085,6.1,2.965,6.9l6.756,6.171a1.493,1.493,0,0,1,.1,2.112l0,0-6.177,6.776a3,3,0,0,0,.2,4.242l6.775,6.179a1.493,1.493,0,0,1,.1,2.11l0,.005-5.437,6.814a3,3,0,0,0,.464,4.219l.006.005,8.1,5.781a1.5,1.5,0,0,1,.259,2.1l0,.005-3.491,5.219a3.007,3.007,0,0,0,4.884,3.5l6.109-8.561A3.007,3.007,0,0,0,960.106,2384.044Z" transform="translate(0 -1252)" fill="#f08013"/><path d="M989.957,2322.684a1.754,1.754,0,1,0,0-.01Zm-3.967-5.6a4.112,4.112,0,0,0-3.356.812,2.5,2.5,0,0,0-.166,3.535l0,0,9.339,12.473a3.108,3.108,0,0,1-.2,4.242l-8.972,8.2a3.01,3.01,0,0,0-.2,4.251h0l6.181,6.77a1.5,1.5,0,0,1-.1,2.118l-6.777,6.167a3.007,3.007,0,0,0-.2,4.248l0,0,5.411,6.334a1.492,1.492,0,0,1-.232,2.1l0,.005-8.085,5.706a3.009,3.009,0,0,0-.51,4.222l6.11,8.557a3.005,3.005,0,0,0,4.883-3.5l-3.491-5.22a1.493,1.493,0,0,1,.246-2.1l.01-.007,8.1-5.781a3.009,3.009,0,0,0,.471-4.225l-5.441-6.814a1.5,1.5,0,0,1,.1-2.117l6.769-6.177a3,3,0,0,0,.2-4.243l-6.173-6.776a1.491,1.491,0,0,1,.094-2.109l0,0,6.755-6.169c.879-.8,2.48-2.413,2.97-6.9a15.552,15.552,0,0,0-13.253-17.547C986.326,2317.123,986.158,2317.1,985.99,2317.085Z" transform="translate(0 -1252)" fill="#f08013"/><path d="M1184.208,2346.285v-15.622h4.342a14.553,14.553,0,0,1,3.052.306,6.612,6.612,0,0,1,2.213.928,7.014,7.014,0,0,1,2.364,2.762,8.381,8.381,0,0,1,.843,3.815,8.6,8.6,0,0,1-.843,3.813,7.171,7.171,0,0,1-2.364,2.76,6.61,6.61,0,0,1-2.213.937,14.954,14.954,0,0,1-3.052.272Zm8.184.868a7.254,7.254,0,0,0,2.628-1.272,8.505,8.505,0,0,0,2.629-3.2,9.364,9.364,0,0,0,.951-4.209,9.488,9.488,0,0,0-.951-4.211,8.593,8.593,0,0,0-2.629-3.2,7.5,7.5,0,0,0-2.6-1.273,14.767,14.767,0,0,0-3.511-.4h-6.2v18.2h6.2a12.857,12.857,0,0,0,3.487-.427m-26.02-6.808,3.312-7.866,3.268,7.866Zm3-10.269-7.475,17.5h1.453l2.548-6.056h7.528l2.552,6.056h1.455l-7.478-17.5Zm-24.58,16.209v-15.622h4.328a14.549,14.549,0,0,1,3.051.306,6.633,6.633,0,0,1,2.217.928,7.153,7.153,0,0,1,2.373,2.762,8.539,8.539,0,0,1,.837,3.815,8.769,8.769,0,0,1-.837,3.813,7.349,7.349,0,0,1-2.373,2.76,6.631,6.631,0,0,1-2.217.937,14.956,14.956,0,0,1-3.051.272Zm8.168.868a7.674,7.674,0,0,0,2.642-1.272,8.746,8.746,0,0,0,2.633-3.2,9.995,9.995,0,0,0,0-8.42,8.831,8.831,0,0,0-2.633-3.2,8.023,8.023,0,0,0-2.618-1.273,14.565,14.565,0,0,0-3.5-.4h-6.237v18.2h6.237a12.783,12.783,0,0,0,3.476-.427m-16.444-17.766h-1.536v18.193h1.536Zm-7.326,13.453a5.608,5.608,0,0,0-.283-1.731,4.93,4.93,0,0,0-.889-1.442,9.59,9.59,0,0,0-3.335-1.972,3.374,3.374,0,0,1-.385-.185,8.172,8.172,0,0,1-2.877-1.692,2.717,2.717,0,0,1-.672-1.933,3.24,3.24,0,0,1,1.029-2.457,3.817,3.817,0,0,1,2.66-.968,5.977,5.977,0,0,1,2,.358,9.537,9.537,0,0,1,2.153,1.154v-1.629a10.3,10.3,0,0,0-2.032-.914,8.013,8.013,0,0,0-2.058-.306,5.257,5.257,0,0,0-3.758,1.373,4.521,4.521,0,0,0-1.452,3.445,4.124,4.124,0,0,0,.946,2.824,9.671,9.671,0,0,0,3.539,2.167,10.042,10.042,0,0,1,3.185,1.83,2.955,2.955,0,0,1,.682,2.036,3.432,3.432,0,0,1-1.024,2.653,3.863,3.863,0,0,1-2.782.977,5.767,5.767,0,0,1-2.184-.492,10.258,10.258,0,0,1-2.42-1.481v1.754a9.714,9.714,0,0,0,2.3,1.22,7.147,7.147,0,0,0,2.326.391,5.3,5.3,0,0,0,3.815-1.384,4.673,4.673,0,0,0,1.5-3.58m-25.775-12.241h3.022a4.882,4.882,0,0,1,3.15.873,2.942,2.942,0,0,1,1.083,2.442,3.6,3.6,0,0,1-.475,1.951,3.1,3.1,0,0,1-1.488,1.219,5.8,5.8,0,0,1-1.329.379c-.558.048-1.494.082-2.843.082h-1.117Zm0,8.2h1.462a10.151,10.151,0,0,1,2.318.213,2.641,2.641,0,0,1,1.278.693,13.74,13.74,0,0,1,.958,1.219c.4.548.917,1.27,1.454,2.158l2.876,4.469h1.633l-4.966-7.653a5.211,5.211,0,0,0-.69-.882,7.186,7.186,0,0,0-.914-.664,5.025,5.025,0,0,0,2.576-1.679,4.349,4.349,0,0,0,.849-2.758,4,4,0,0,0-1.516-3.388,7.119,7.119,0,0,0-4.383-1.178h-4.371v18.193h1.431Zm-7.85,7.506h-8.515v-7.392h8.02v-1.165h-8.02v-7.214h8.3v-1.179h-9.756v18.193h9.963Zm-21.919,1.543,7.629-18.495h-1.547l-6.213,15.267-6.147-15.271h-1.612l7.658,18.5Zm-14.625-.3h1.547v-18.2h-1.547Zm-21.257-16.347,13.322,16.077h1.334v-18.172h-1.435v15.832l-13.165-15.832h-1.51v18.17h1.454Zm-16.443,17.951a8.089,8.089,0,0,0,6.189-2.452,9.424,9.424,0,0,0,2.289-6.6V2328.09h-1.734v12.117a7.5,7.5,0,0,1-1.8,5.269,6.534,6.534,0,0,1-4.944,1.969,6.4,6.4,0,0,1-4.907-1.969,7.335,7.335,0,0,1-1.853-5.269V2328.09H1012.9v12.023a9.246,9.246,0,0,0,2.264,6.606,8.029,8.029,0,0,0,6.148,2.449m94.775,27.555a9.8,9.8,0,0,1-5.39,5.272,10.8,10.8,0,0,1-7.78,0,10.33,10.33,0,0,1-3.23-2.114,9.355,9.355,0,0,1-2.154-3.158,9.131,9.131,0,0,1-.764-3.72,9.536,9.536,0,0,1,.764-3.759,9.694,9.694,0,0,1,2.154-3.115,11.383,11.383,0,0,1,3.318-2.148,10.316,10.316,0,0,1,7.629,0,9.535,9.535,0,0,1,3.25,2.148,9.783,9.783,0,0,1,2.232,3.2,9.437,9.437,0,0,1,.726,3.662,9.209,9.209,0,0,1-.755,3.719m1.875-14.285a15.677,15.677,0,0,0-5.082-3.235,17.2,17.2,0,0,0-6.1-1.116,16.7,16.7,0,0,0-5.991,1.116,15.119,15.119,0,0,0-5.107,3.235,14.6,14.6,0,0,0-3.462,4.795,14.155,14.155,0,0,0-1.2,5.655,14.354,14.354,0,0,0,4.666,10.717,15.5,15.5,0,0,0,5.082,3.205,17.11,17.11,0,0,0,12.077.029,16.258,16.258,0,0,0,5.152-3.239,15.19,15.19,0,0,0,3.423-4.779,14.554,14.554,0,0,0-3.456-16.382m94.315,20.112v-7.187h13.807v-5.018h-13.807v-6.9h14.239v-4.994h-20.076v29.091h20.533v-4.991ZM1197.6,2376.3a5.372,5.372,0,0,1-1.968,4.378,8.016,8.016,0,0,1-5.357,1.715,9.119,9.119,0,0,1-3.544-.669,7.184,7.184,0,0,1-2.665-1.973,3.814,3.814,0,0,1-.806-1.64,15.265,15.265,0,0,1-.285-3.6v-16.2h-5.414v16.36a19.194,19.194,0,0,0,.49,5.08,8.322,8.322,0,0,0,1.656,3.148,12.159,12.159,0,0,0,4.576,3.508,14.815,14.815,0,0,0,6,1.187,13.523,13.523,0,0,0,9.155-3.087,10.051,10.051,0,0,0,3.563-8.086v-18.108h-5.386Zm-28.909.393a9.7,9.7,0,0,1-2.154,3.2l-.031.029a9.582,9.582,0,0,1-7.053,2.986,9.763,9.763,0,0,1-3.812-.774,10.545,10.545,0,0,1-3.253-2.211v-.029a9.359,9.359,0,0,1-2.136-3.2,9.583,9.583,0,0,1-.763-3.813,9.8,9.8,0,0,1,.763-3.869,9.476,9.476,0,0,1,2.119-3.194,10.5,10.5,0,0,1,3.305-2.2,9.919,9.919,0,0,1,7.593,0,9.382,9.382,0,0,1,3.22,2.175,9.976,9.976,0,0,1,2.2,3.3,9.3,9.3,0,0,1,.752,3.785,9.658,9.658,0,0,1-.752,3.813m3.2,6.057a13.856,13.856,0,0,0,3.27-9.165,15.833,15.833,0,0,0-1.153-5.983,15.526,15.526,0,0,0-3.454-4.959,15.179,15.179,0,0,0-5.058-3.3,16.375,16.375,0,0,0-6.053-1.148,16.039,16.039,0,0,0-5.988,1.148,15.761,15.761,0,0,0-5.1,3.3,15.148,15.148,0,0,0-3.378,4.9,14.071,14.071,0,0,0-1.22,5.761,14.923,14.923,0,0,0,3.249,9.512,15.162,15.162,0,0,0,8.409,5.34,38.321,38.321,0,0,0,7.3,4.173,16.777,16.777,0,0,0,6.489,1.49h.571a2.3,2.3,0,0,0,.476-.048l.234-.032,4.315-3.792-.327-.917-.242-.571-.565.124a13.775,13.775,0,0,1-1.5.232,6.529,6.529,0,0,1-1.186.075,15.2,15.2,0,0,1-3.534-.457c-.762-.215-1.637-.521-2.565-.881a16.145,16.145,0,0,0,7.019-4.813m-36.657-12.316-.626-.338a19.952,19.952,0,0,1-3.672-2.6,4.314,4.314,0,0,1-.813-1.019,1.29,1.29,0,0,1-.241-.7,1.944,1.944,0,0,1,.931-1.7,4.483,4.483,0,0,1,2.725-.755,7.9,7.9,0,0,1,2.965.569,15.218,15.218,0,0,1,3.334,2.008l1.177.876v-6.272l-.355-.213a16.984,16.984,0,0,0-3.46-1.45,13.564,13.564,0,0,0-3.487-.485,10.108,10.108,0,0,0-6.619,2.183,7.211,7.211,0,0,0-2.639,5.683,6.872,6.872,0,0,0,1.392,4.308,12.527,12.527,0,0,0,2.307,2.054c1.057.8,2.412,1.671,4.053,2.683,1.033.588,1.865,1.141,2.512,1.595a8.541,8.541,0,0,1,1.312,1.089,2.924,2.924,0,0,1,.664,1.817,2.327,2.327,0,0,1-.975,1.932,4.785,4.785,0,0,1-2.932.789,7.418,7.418,0,0,1-3.49-.843,14.321,14.321,0,0,1-3.537-2.843l-1.272-1.372v7.275l.315.208a12.015,12.015,0,0,0,3.814,2.057,13.42,13.42,0,0,0,4.434.676,10.02,10.02,0,0,0,6.616-2.184,7.119,7.119,0,0,0,2.655-5.635,8.315,8.315,0,0,0-1.42-4.936,17.661,17.661,0,0,0-5.665-4.446m-53.056,10.839a6.88,6.88,0,0,1-4.17.93h-5.045v-7.875h4.334a8.282,8.282,0,0,1,4.727,1.03,3.379,3.379,0,0,1,1.311,3,3.342,3.342,0,0,1-1.152,2.911m-9.22-19.863h3.4a5.818,5.818,0,0,1,3.6.843,2.525,2.525,0,0,1,.73,1.025,4.949,4.949,0,0,1,.247,1.639,3.417,3.417,0,0,1-1.31,3.026,7.7,7.7,0,0,1-4.474,1.032h-2.194Zm10.764,9.34a6.593,6.593,0,0,0,3.235-6.1,7.887,7.887,0,0,0-2.72-6.36,11.246,11.246,0,0,0-7.42-2.205h-9.611V2387.6h11.251a12.336,12.336,0,0,0,7.9-2.4,7.936,7.936,0,0,0,3.028-6.539,8.067,8.067,0,0,0-1.966-5.419,9.468,9.468,0,0,0-3.7-2.491m-41.38-12.469h-5.841v29.309h20.521v-5h-14.684Zm-23.53,16.083h13.723v-5.341h-13.723v-7.662h14.112V2356.1H1013v31.488h20.383v-5.34h-14.568Z" transform="translate(0 -1252)" fill="#404827"/><rect width="44.058" height="5.841" transform="translate(1013.764 1156.152)" fill="#404827"/><path d="M1013.694,2446.577c-.217,0-.289-.073-.289-.292v-12.121c0-.221.072-.293.289-.293h8.078c.2,0,.272.072.272.293v.67c0,.218-.073.29-.272.29h-6.933v4.415h6.606c.219,0,.29.072.29.289v.67c0,.221-.071.292-.29.292h-6.606v4.536h6.933c.217,0,.272.074.272.292v.67c0,.221-.057.292-.272.292Z" transform="translate(0 -1252)" fill="#404827"/><path d="M1030.284,2443.979c0-.8-.907-1.218-2.557-1.452-1.8-.234-3.521-.652-3.521-2.558,0-1.724,1.342-2.831,3.484-2.831a6.621,6.621,0,0,1,3.465,1.015c.218.126.183.236.092.4l-.235.437c-.093.179-.183.273-.4.126a4.8,4.8,0,0,0-2.848-.871c-1.526,0-2.27.653-2.27,1.652s.908,1.18,2.558,1.416c1.8.255,3.541.832,3.541,2.594,0,1.669-1.373,2.867-3.722,2.867a6.945,6.945,0,0,1-3.739-1.159c-.164-.109-.164-.2-.056-.4l.255-.459c.092-.182.182-.274.4-.108a5.413,5.413,0,0,0,3.068,1.017C1029.56,2445.668,1030.284,2444.905,1030.284,2443.979Z" transform="translate(0 -1252)" fill="#404827"/><path d="M1035.456,2441.946a3.359,3.359,0,0,0,3.1,3.595,3.316,3.316,0,0,0,3.11-3.508c0-.024,0-.047-.007-.071a3.266,3.266,0,0,0-2.9-3.595c-.069-.008-.138-.011-.207-.015a3.357,3.357,0,0,0-3.1,3.591Zm0,8.04c0,.217-.073.289-.273.289h-.818c-.2,0-.271-.072-.271-.289v-12.357c0-.218.071-.288.271-.288h.437c.163,0,.22.07.305.288l.152,1.686a4.069,4.069,0,0,1,3.558-2.177,4.866,4.866,0,0,1,0,9.639,3.707,3.707,0,0,1-3.355-2.125Z" transform="translate(0 -1252)" fill="#404827"/><path d="M1052.59,2441.491a3.2,3.2,0,0,0-3.1-3.212,3.356,3.356,0,0,0-3.3,3.212Zm.672,3.615c.126.16.126.271,0,.4a5.476,5.476,0,0,1-3.662,1.268,4.819,4.819,0,0,1-.092-9.636,4.575,4.575,0,0,1,4.5,4.648c0,.12-.007.241-.02.359,0,.219-.037.291-.272.291h-7.57a3.53,3.53,0,0,0,3.51,3.14,4.972,4.972,0,0,0,2.85-.909c.2-.106.273-.151.417.019Z" transform="translate(0 -1252)" fill="#404827"/><path d="M1062.935,2444.525c.152-.152.255-.108.382.053l.434.459c.152.164.152.256,0,.381a4.653,4.653,0,0,1-3.354,1.362,4.82,4.82,0,0,1,0-9.639,4.649,4.649,0,0,1,3.354,1.362c.152.127.152.217,0,.381l-.434.459c-.127.163-.237.2-.382.054a3.591,3.591,0,1,0,0,5.128Z" transform="translate(0 -1252)" fill="#404827"/><path d="M1066.748,2437.635c0-.217.055-.289.272-.289h.8c.236,0,.29.072.29.289v8.656c0,.221-.071.293-.29.293h-.8c-.218,0-.272-.075-.272-.293Zm.653-4.273a.945.945,0,0,1,.076,1.889h-.076a.945.945,0,0,1,0-1.889Z" transform="translate(0 -1252)" fill="#404827"/><path d="M1072.573,2443.767c0,1.124.817,1.943,2.289,1.943a3.916,3.916,0,0,0,3.012-1.707v-1.5a6.415,6.415,0,0,0-2.668-.655c-1.728-.006-2.631.684-2.631,1.919Zm-.419-5.39-.152-.545c-.055-.2,0-.289.219-.361a16.778,16.778,0,0,1,3.12-.326c3.054,0,3.885,1.359,3.885,4.355v4.791c0,.218-.073.289-.273.289h-.526c-.154,0-.219-.071-.274-.289l-.071-1.233a4.475,4.475,0,0,1-3.647,1.722,2.982,2.982,0,0,1-3.222-2.723,2.774,2.774,0,0,1-.011-.29c0-1.981,1.489-2.941,3.723-2.941a8.02,8.02,0,0,1,2.939.636c0-2.29-.672-3.12-2.578-3.12a14.944,14.944,0,0,0-2.8.288C1072.27,2438.684,1072.209,2438.588,1072.154,2438.377Z" transform="translate(0 -1252)" fill="#404827"/><path d="M1082.389,2433.473c0-.221.073-.292.289-.292h.8c.216,0,.271.071.271.292v12.812c0,.22-.055.292-.271.292h-.8c-.216,0-.289-.073-.289-.292Z" transform="translate(0 -1252)" fill="#404827"/><path d="M1087.78,2437.635c0-.217.057-.289.272-.289h.8c.235,0,.289.072.289.289v8.656c0,.221-.072.293-.289.293h-.8c-.217,0-.272-.075-.272-.293Zm.653-4.273a.945.945,0,0,1,.077,1.889h-.077a.945.945,0,1,1-.075-1.889Z" transform="translate(0 -1252)" fill="#404827"/><path d="M1091.99,2446.574c-.093,0-.152-.017-.152-.151v-.108a.393.393,0,0,1,.107-.27l5.428-7.5H1092.6c-.219,0-.291-.073-.291-.288v-.635c0-.217.072-.289.291-.289h6.7c.127,0,.163.035.163.143v.11a.548.548,0,0,1-.108.29l-5.41,7.475h5.282c.216,0,.289.054.289.291v.633c0,.221-.073.292-.289.292Z" transform="translate(0 -1252)" fill="#404827"/><path d="M1102.465,2443.767c0,1.124.815,1.943,2.288,1.943a3.919,3.919,0,0,0,3.012-1.707v-1.5a6.419,6.419,0,0,0-2.668-.655c-1.728-.006-2.634.684-2.634,1.919Zm-.42-5.39-.15-.545c-.056-.2,0-.289.215-.361a16.826,16.826,0,0,1,3.122-.326c3.051,0,3.884,1.359,3.884,4.355v4.791c0,.218-.072.289-.271.289h-.526c-.152,0-.217-.071-.271-.289l-.072-1.233a4.477,4.477,0,0,1-3.651,1.722,2.982,2.982,0,0,1-3.22-2.723c-.006-.1-.008-.194-.008-.29,0-1.981,1.489-2.941,3.721-2.941a8.091,8.091,0,0,1,2.939.636c0-2.29-.67-3.12-2.574-3.12a14.931,14.931,0,0,0-2.8.288C1102.153,2438.684,1102.093,2438.588,1102.045,2438.377Z" transform="translate(0 -1252)" fill="#404827"/><path d="M1118.579,2444.525c.153-.152.254-.108.381.053l.437.459c.144.164.144.256,0,.381a4.654,4.654,0,0,1-3.357,1.362,4.82,4.82,0,0,1,0-9.639,4.65,4.65,0,0,1,3.357,1.362c.144.127.144.217,0,.381l-.437.459c-.127.163-.236.2-.381.054a3.591,3.591,0,1,0,0,5.128Z" transform="translate(0 -1252)" fill="#404827"/><path d="M1122.392,2437.635c0-.217.054-.289.27-.289h.8c.236,0,.293.072.293.289v8.656c0,.221-.073.293-.293.293h-.8c-.218,0-.27-.075-.27-.293Zm.652-4.273a.945.945,0,0,1,.076,1.889h-.076a.945.945,0,0,1-.076-1.889Z" transform="translate(0 -1252)" fill="#404827"/><path d="M1131.7,2435.922a.733.733,0,0,1-.473.182h-.726c-.181,0-.254-.111-.053-.307l2.269-2.393c.127-.156.256-.093.364.072l.344.544a.235.235,0,0,1-.008.331.273.273,0,0,1-.045.033Zm3.247,6.043a3.425,3.425,0,1,0-3.427,3.594,3.5,3.5,0,0,0,3.427-3.567Zm-3.427-4.827a4.82,4.82,0,1,1-4.776,4.866v-.039A4.8,4.8,0,0,1,1131.522,2437.138Z" transform="translate(0 -1252)" fill="#404827"/><path d="M1140.141,2439.263a3.59,3.59,0,0,1,3.1-2.125c1.942,0,3.6,1.179,3.6,4.085v5.062c0,.219-.072.289-.274.289h-.815c-.2,0-.271-.07-.271-.289v-4.7c0-2.16-1.091-3.209-2.56-3.209-1.58,0-2.594,1.526-2.594,3.337v4.577c0,.22-.071.292-.271.292h-.817c-.2,0-.271-.073-.271-.292v-8.656c0-.218.073-.288.271-.288h.458c.154,0,.219.07.305.288Z" transform="translate(0 -1252)" fill="#404827"/><path d="M1161.447,2441.491a3.2,3.2,0,0,0-3.1-3.212,3.356,3.356,0,0,0-3.3,3.212Zm.67,3.615c.127.16.127.271,0,.4a5.464,5.464,0,0,1-3.661,1.268,4.819,4.819,0,0,1-.091-9.636,4.575,4.575,0,0,1,4.5,4.648c0,.12-.009.241-.019.359,0,.219-.036.291-.273.291h-7.568a3.531,3.531,0,0,0,3.51,3.14,5,5,0,0,0,2.848-.909c.2-.106.271-.151.418.019Z" transform="translate(0 -1252)" fill="#404827"/><path d="M1166.6,2439.263a3.583,3.583,0,0,1,3.1-2.125c1.941,0,3.594,1.179,3.594,4.085v5.062c0,.219-.073.289-.274.289h-.816c-.2,0-.27-.07-.27-.289v-4.7c0-2.16-1.089-3.209-2.56-3.209-1.578,0-2.593,1.526-2.593,3.337v4.577c0,.22-.073.292-.273.292h-.816c-.2,0-.272-.073-.272-.292v-8.656c0-.218.071-.288.272-.288h.458c.152,0,.217.07.305.288Z" transform="translate(0 -1252)" fill="#404827"/><path d="M1021.1,2468.3c-.092.18-.182.291-.327.291h-.153c-.153,0-.218-.108-.345-.291l-4.9-9.676-1.067,9.44c-.037.216-.075.289-.29.289h-.889c-.2,0-.291-.089-.255-.289l1.526-12.489c.017-.129.034-.164.164-.164h.108c.073,0,.127.019.217.164l5.809,10.985,5.808-10.985c.09-.152.152-.164.219-.164h.109c.127,0,.154.035.164.164l1.525,12.489c.019.2-.054.289-.272.289h-.89c-.2,0-.254-.074-.273-.289l-1.053-9.461Z" transform="translate(0 -1252)" fill="#404827"/><path d="M1038.506,2463.273a3.2,3.2,0,0,0-3.1-3.212,3.355,3.355,0,0,0-3.3,3.212Zm.671,3.611c.127.164.127.272,0,.4a5.464,5.464,0,0,1-3.662,1.271,4.819,4.819,0,0,1-.092-9.637,4.576,4.576,0,0,1,4.5,4.648c0,.119-.009.242-.02.361,0,.217-.037.289-.273.289h-7.569a3.526,3.526,0,0,0,3.508,3.141,4.97,4.97,0,0,0,2.849-.916c.2-.107.273-.145.419.019Z" transform="translate(0 -1252)" fill="#404827"/><path d="M1049.124,2463.747a3.354,3.354,0,0,0-3.1-3.593v0a3.306,3.306,0,0,0-3.113,3.487c0,.029,0,.06.007.089a3.254,3.254,0,0,0,2.872,3.6c.078.006.154.013.234.016a3.373,3.373,0,0,0,3.1-3.594Zm-.021-8.5c0-.218.075-.292.275-.292h.814c.2,0,.273.074.273.292v12.815c0,.218-.073.29-.273.29h-.416c-.164,0-.236-.076-.305-.29l-.152-1.688a4.14,4.14,0,0,1-3.576,2.178,4.865,4.865,0,0,1,0-9.637,3.675,3.675,0,0,1,3.356,2.121Z" transform="translate(0 -1252)" fill="#404827"/><path d="M1054.331,2459.414c0-.22.053-.291.272-.291h.8c.238,0,.29.074.29.291v8.657c0,.217-.071.291-.29.291h-.8c-.219,0-.272-.074-.272-.291Zm.653-4.272a.943.943,0,1,1,.076,1.885.33.33,0,0,1-.076,0,.943.943,0,0,1,0-1.885Z" transform="translate(0 -1252)" fill="#404827"/><path d="M1065.983,2466.3c.145-.142.254-.107.382.057l.437.456c.152.165.152.253,0,.382a4.662,4.662,0,0,1-3.356,1.363,4.82,4.82,0,0,1,0-9.638,4.64,4.64,0,0,1,3.356,1.361c.152.125.152.218,0,.381l-.437.458c-.126.162-.237.2-.382.055a3.592,3.592,0,1,0,0,5.125Z" transform="translate(0 -1252)" fill="#404827"/><path d="M1069.8,2459.414c0-.22.055-.291.271-.291h.8c.235,0,.289.074.289.291v8.657c0,.217-.072.291-.289.291h-.8c-.217,0-.271-.074-.271-.291Zm.652-4.272a.943.943,0,1,1,.076,1.885.329.329,0,0,1-.076,0,.943.943,0,0,1,0-1.885Z" transform="translate(0 -1252)" fill="#404827"/><path d="M1076.253,2461.041a3.6,3.6,0,0,1,3.1-2.124c1.944,0,3.594,1.181,3.594,4.085v5.063c0,.216-.07.292-.272.292h-.815c-.2,0-.273-.076-.273-.292v-4.7c0-2.16-1.089-3.215-2.559-3.215-1.578,0-2.593,1.527-2.593,3.34v4.577c0,.218-.074.293-.273.293h-.816c-.2,0-.271-.075-.271-.293v-8.656c0-.221.072-.292.271-.292h.457c.153,0,.219.075.305.292Z" transform="translate(0 -1252)" fill="#404827"/><path d="M1086.6,2465.541c0,1.126.816,1.942,2.288,1.942a3.923,3.923,0,0,0,3.012-1.7v-1.507a6.431,6.431,0,0,0-2.668-.653C1087.507,2463.619,1086.6,2464.307,1086.6,2465.541Zm-.415-5.391-.155-.543c-.054-.2,0-.291.219-.362a17.124,17.124,0,0,1,3.123-.325c3.051,0,3.885,1.358,3.885,4.356v4.791c0,.218-.073.29-.274.29h-.527c-.151,0-.217-.076-.271-.29l-.073-1.233a4.468,4.468,0,0,1-3.648,1.723,2.987,2.987,0,0,1-3.223-2.724c-.006-.1-.011-.193-.008-.289,0-1.985,1.487-2.94,3.721-2.94a8.035,8.035,0,0,1,2.941.634c0-2.289-.671-3.121-2.58-3.121a14.81,14.81,0,0,0-2.793.292C1086.291,2460.46,1086.235,2460.367,1086.185,2460.15Z" transform="translate(0 -1252)" fill="#404827"/><path d="M1102.372,2468.065c0,.216-.073.292-.271.292h-.873c-.216,0-.288-.076-.288-.292V2455.94c0-.217.072-.289.288-.289h8.06c.217,0,.291.072.291.289v.673c0,.218-.092.289-.291.289h-6.916v4.411h6.753c.218,0,.29.074.29.289v.673c0,.218-.074.29-.29.29h-6.753Z" transform="translate(0 -1252)" fill="#404827"/><path d="M1112.264,2465.541c0,1.126.817,1.942,2.288,1.942a3.924,3.924,0,0,0,3.013-1.7v-1.507a6.446,6.446,0,0,0-2.668-.653C1113.17,2463.619,1112.264,2464.307,1112.264,2465.541Zm-.42-5.391-.144-.543c-.055-.2,0-.291.217-.362a17.143,17.143,0,0,1,3.123-.325c3.052,0,3.885,1.358,3.885,4.356v4.791c0,.218-.073.29-.274.29h-.526c-.145,0-.217-.076-.272-.29l-.072-1.233a4.469,4.469,0,0,1-3.648,1.723,2.983,2.983,0,0,1-3.22-2.724c-.008-.1-.01-.193-.009-.289,0-1.985,1.488-2.94,3.72-2.94a7.955,7.955,0,0,1,2.941.634c0-2.289-.668-3.121-2.578-3.121a14.856,14.856,0,0,0-2.8.292C1111.954,2460.46,1111.9,2460.367,1111.844,2460.15Z" transform="translate(0 -1252)" fill="#404827"/><path d="M1132.155,2458.917c1.78,0,3.411,1.181,3.411,4.085v5.063c0,.216-.053.292-.27.292h-.817c-.182,0-.271-.076-.271-.292v-4.7c0-2.16-1.09-3.215-2.379-3.215-1.342,0-2.377,1.255-2.377,3.251v4.664c0,.216-.055.292-.27.292h-.818c-.181,0-.272-.076-.272-.292v-4.7c0-1.906-.889-3.211-2.376-3.211s-2.38,1.414-2.38,3.336v4.577c0,.218-.072.293-.271.293h-.818c-.2,0-.271-.075-.271-.293v-8.656c0-.221.071-.292.271-.292h.457c.154,0,.219.075.306.292l.152,1.687a3.222,3.222,0,0,1,2.885-2.175,3.324,3.324,0,0,1,3.069,2.231A3.488,3.488,0,0,1,1132.155,2458.917Z" transform="translate(0 -1252)" fill="#404827"/><path d="M1139.035,2459.414c0-.22.054-.291.271-.291h.8c.238,0,.292.074.292.291v8.657c0,.217-.074.291-.292.291h-.8c-.217,0-.271-.074-.271-.291Zm.653-4.272a.943.943,0,1,1,.075,1.885.321.321,0,0,1-.075,0,.943.943,0,1,1-.077-1.885Z" transform="translate(0 -1252)" fill="#404827"/><path d="M1144.386,2455.252c0-.218.074-.292.291-.292h.8c.217,0,.27.074.27.292v12.815c0,.218-.053.29-.27.29h-.8c-.219,0-.291-.076-.291-.29Z" transform="translate(0 -1252)" fill="#404827"/><path d="M1149.779,2459.414c0-.22.055-.291.271-.291h.8c.235,0,.29.074.29.291v8.657c0,.217-.073.291-.29.291h-.8c-.217,0-.271-.074-.271-.291Zm.653-4.272a.943.943,0,1,1,.075,1.885.321.321,0,0,1-.075,0,.943.943,0,1,1-.077-1.885Z" transform="translate(0 -1252)" fill="#404827"/><path d="M1155.6,2465.541c0,1.126.816,1.942,2.29,1.942a3.924,3.924,0,0,0,3.01-1.7v-1.507a6.435,6.435,0,0,0-2.668-.653C1156.511,2463.619,1155.6,2464.307,1155.6,2465.541Zm-.42-5.391-.152-.543c-.054-.2,0-.291.218-.362a17.112,17.112,0,0,1,3.121-.325c3.052,0,3.885,1.358,3.885,4.356v4.791c0,.218-.072.29-.272.29h-.527c-.143,0-.218-.076-.273-.29l-.071-1.233a4.48,4.48,0,0,1-3.647,1.723,2.986,2.986,0,0,1-3.222-2.728,2.741,2.741,0,0,1-.01-.285c0-1.985,1.49-2.94,3.722-2.94a8.042,8.042,0,0,1,2.94.634c0-2.289-.673-3.121-2.578-3.121a14.841,14.841,0,0,0-2.8.292C1155.3,2460.46,1155.241,2460.367,1155.185,2460.15Z" transform="translate(0 -1252)" fill="#404827"/><path d="M1166.71,2463.6v4.464c0,.216-.074.292-.27.292h-.818c-.2,0-.27-.076-.27-.292v-8.657c0-.22.072-.292.27-.292h.457c.154,0,.22.074.306.292l.219,1.816a3.765,3.765,0,0,1,3.775-2.307c.254,0,.292.071.254.253l-.11.816c-.054.218-.108.275-.325.275a3.246,3.246,0,0,0-3.481,2.992C1166.71,2463.368,1166.707,2463.484,1166.71,2463.6Z" transform="translate(0 -1252)" fill="#404827"/></g></svg>