<svg xmlns="http://www.w3.org/2000/svg" width="248.89" height="67.098" viewBox="0 0 248.89 67.098"><g transform="translate(-1313.896 -1305.463)"><path d="M1433.367,2618.715c0,.156.028.215.129.257a3.642,3.642,0,0,0,1.109.15,1.442,1.442,0,0,0,1.03-.251,2.556,2.556,0,0,0,.863-2.185c0-2.071-1.37-2.666-2.234-2.666a3.462,3.462,0,0,0-.768.052c-.1.032-.129.094-.129.205Zm-1.722-1.156c0-2.213,0-2.629-.026-3.092-.03-.492-.146-.731-.634-.83a2.694,2.694,0,0,0-.558-.048c-.167,0-.251-.024-.251-.123s.1-.136.321-.136c.769,0,1.688.045,1.995.045.5,0,1.6-.045,2.047-.045a4.7,4.7,0,0,1,2.693.627,2.541,2.541,0,0,1,.983,2c0,1.083-.448,2.072-1.926,3.266,1.3,1.633,2.3,2.933,3.159,3.837a2.99,2.99,0,0,0,1.63.989,2.7,2.7,0,0,0,.414.049c.113,0,.171.039.171.113,0,.115-.1.145-.272.145H1440a2.908,2.908,0,0,1-1.554-.28,7.007,7.007,0,0,1-2-2.144c-.582-.8-1.248-1.789-1.441-2.008a.31.31,0,0,0-.26-.106l-1.268-.024c-.072,0-.113.024-.113.116v.2c0,1.363,0,2.511.073,3.124.04.42.131.743.572.8a6.61,6.61,0,0,0,.707.063c.117,0,.176.039.176.113,0,.1-.1.145-.29.145-.843,0-1.925-.043-2.144-.043-.276,0-1.2.043-1.777.043-.187,0-.289-.043-.289-.145,0-.074.058-.113.23-.113a2.333,2.333,0,0,0,.523-.063c.293-.056.364-.379.424-.8.073-.613.073-1.761.073-3.1Z" transform="translate(0 -1252)" fill="#00759c"/><path d="M1508.762,2614.174l-2.175.06c-.844.027-1.192.1-1.41.42a1.427,1.427,0,0,0-.245.512c-.03.109-.078.175-.164.175-.106,0-.129-.073-.129-.234a16.808,16.808,0,0,1,.307-1.677c.042-.2.081-.279.167-.279a3.534,3.534,0,0,0,.63.175c.427.043.98.076,1.456.076h5.773a6.941,6.941,0,0,0,1.007-.076,3.214,3.214,0,0,1,.4-.072c.1,0,.116.087.116.305,0,.308-.051,1.312-.051,1.693-.008.148-.039.233-.125.233-.117,0-.148-.075-.166-.291l-.007-.169c-.034-.371-.423-.777-1.723-.808l-1.835-.043v5.976c0,1.344,0,2.5.071,3.122.043.408.128.726.569.784a5.949,5.949,0,0,0,.744.055c.158,0,.232.049.232.121,0,.1-.115.145-.279.145-.957,0-1.875-.043-2.285-.043-.336,0-1.254.043-1.838.043-.194,0-.3-.043-.3-.145,0-.072.059-.121.235-.121a2.37,2.37,0,0,0,.529-.055c.29-.058.377-.376.42-.8.072-.611.072-1.762.072-3.106Z" transform="translate(0 -1252)" fill="#00759c"/><path d="M1395.959,2617.559c0-2.213,0-2.623-.031-3.087-.03-.5-.14-.733-.624-.835a3.33,3.33,0,0,0-.569-.044c-.161,0-.249-.028-.249-.127s.1-.136.317-.136c.777,0,1.7.045,2.107.045.592,0,1.44-.045,2.11-.045a3.545,3.545,0,0,1,2.712.836,2.545,2.545,0,0,1,.731,1.731,3.431,3.431,0,0,1-3.588,3.53,2.423,2.423,0,0,1-.305-.013c-.074-.016-.178-.031-.178-.134s.1-.158.415-.158a2.3,2.3,0,0,0,1.947-2.4,2.8,2.8,0,0,0-.862-2.192,2.159,2.159,0,0,0-1.457-.566,2.062,2.062,0,0,0-.57.057c-.07.029-.113.111-.113.274v5.835c0,1.344,0,2.492.071,3.121.042.4.132.727.569.783a6.563,6.563,0,0,0,.747.063c.162,0,.23.039.23.113,0,.1-.113.145-.275.145-.965,0-1.881-.043-2.262-.043-.333,0-1.252.043-1.836.043-.193,0-.291-.043-.291-.145,0-.074.054-.113.233-.113a2.445,2.445,0,0,0,.526-.063c.294-.056.36-.379.422-.8.073-.613.073-1.761.073-3.1Z" transform="translate(0 -1252)" fill="#00759c"/><path d="M1524.565,2622.969a5.774,5.774,0,0,1-.1-8.3,6.35,6.35,0,0,1,4.608-1.543,14.774,14.774,0,0,1,2.119.144c.55.074,1.013.2,1.453.25.158.012.22.084.22.172,0,.117-.039.294-.079.8-.024.483-.014,1.285-.041,1.574-.013.218-.04.336-.175.336s-.144-.118-.144-.318a2.056,2.056,0,0,0-.567-1.342,4.331,4.331,0,0,0-2.96-.9,3.809,3.809,0,0,0-2.74.9,4.849,4.849,0,0,0-1.34,3.774,4.9,4.9,0,0,0,4.589,5.2c1.3,0,2.088-.15,2.669-.823a2.413,2.413,0,0,0,.493-.954c.045-.236.075-.3.192-.3s.129.107.129.217a13.418,13.418,0,0,1-.321,1.939.511.511,0,0,1-.378.43,8.489,8.489,0,0,1-2.624.336A7.293,7.293,0,0,1,1524.565,2622.969Z" transform="translate(0 -1252)" fill="#00759c"/><path d="M1472.13,2622.973a5.784,5.784,0,0,1-.1-8.3,6.334,6.334,0,0,1,4.6-1.543,14.794,14.794,0,0,1,2.121.144c.55.074,1.016.207,1.453.25.161.012.216.089.216.172,0,.119-.04.294-.064.808-.033.477-.024,1.279-.053,1.568-.013.226-.044.337-.175.337-.113,0-.137-.111-.137-.319a2.144,2.144,0,0,0-.57-1.342,4.367,4.367,0,0,0-2.969-.9,3.807,3.807,0,0,0-2.736.9,5.455,5.455,0,0,0,3.252,8.969c1.3,0,2.081-.15,2.669-.817a2.439,2.439,0,0,0,.491-.96c.045-.236.076-.3.195-.3.1,0,.129.11.129.226a13.508,13.508,0,0,1-.324,1.936.52.52,0,0,1-.377.424,8.471,8.471,0,0,1-2.625.336A7.327,7.327,0,0,1,1472.13,2622.973Z" transform="translate(0 -1252)" fill="#00759c"/><path d="M1424.383,2619.82c.072,0,.086-.042.072-.084l-1.308-3.6c-.017-.059-.033-.131-.072-.131s-.075.072-.093.131l-1.335,3.587c-.017.056,0,.1.056.1Zm-2.975.734c-.072,0-.1.032-.131.12l-.783,2.078a2.947,2.947,0,0,0-.222.893c0,.261.129.451.585.451h.217c.174,0,.22.029.22.117,0,.117-.091.146-.249.146-.465,0-1.09-.044-1.545-.044-.164,0-.968.044-1.721.044-.191,0-.275-.029-.275-.146,0-.088.059-.117.17-.117a3.262,3.262,0,0,0,.45-.031c.677-.088.952-.584,1.243-1.313l3.665-9.156c.171-.42.26-.578.406-.578.131,0,.216.127.366.461.348.8,2.68,6.753,3.619,8.968.553,1.315.968,1.518,1.276,1.586a2.722,2.722,0,0,0,.614.063c.113,0,.189.015.189.117,0,.117-.134.146-.672.146-.523,0-1.586,0-2.752-.029-.269-.015-.441-.015-.441-.117s.055-.117.2-.129a.238.238,0,0,0,.131-.34l-1.162-3.084a.146.146,0,0,0-.145-.106Z" transform="translate(0 -1252)" fill="#00759c"/><path d="M1464.722,2619.816c.065,0,.083-.039.065-.085l-1.308-3.6c-.018-.063-.034-.133-.071-.133-.053,0-.077.07-.093.133l-1.336,3.586c-.015.058,0,.1.056.1Zm-2.979.733c-.076,0-.106.031-.134.115l-.79,2.084a2.985,2.985,0,0,0-.211.89c0,.263.128.458.58.458h.218c.177,0,.221.024.221.113,0,.115-.09.145-.252.145-.463,0-1.091-.043-1.547-.043-.156,0-.96.043-1.717.043-.187,0-.277-.03-.277-.145,0-.089.061-.113.174-.113.129,0,.342-.022.452-.035.676-.088.946-.58,1.238-1.313l3.657-9.159c.182-.421.266-.581.415-.581.134,0,.222.135.368.467.348.807,2.677,6.75,3.61,8.968.556,1.317.981,1.518,1.286,1.59a3.477,3.477,0,0,0,.609.063c.119,0,.191.008.191.113s-.131.145-.672.145c-.519,0-1.594,0-2.751-.03-.262-.013-.44-.013-.44-.115s.056-.113.2-.135a.237.237,0,0,0,.134-.335l-1.17-3.088a.141.141,0,0,0-.144-.1Z" transform="translate(0 -1252)" fill="#00759c"/><path d="M1540.643,2619.82c.062,0,.086-.042.062-.084l-1.3-3.6c-.016-.059-.028-.131-.077-.131s-.068.072-.086.131l-1.343,3.587c-.006.056,0,.1.06.1Zm-2.976.734c-.075,0-.1.032-.132.12l-.786,2.078a2.9,2.9,0,0,0-.217.893c0,.261.129.451.584.451h.215c.174,0,.216.029.216.117,0,.117-.082.146-.247.146-.461,0-1.089-.044-1.542-.044-.161,0-.961.044-1.72.044-.192,0-.277-.029-.277-.146,0-.088.059-.117.172-.117a3.417,3.417,0,0,0,.451-.031c.673-.088.951-.584,1.246-1.313l3.652-9.156c.183-.42.271-.578.416-.578.13,0,.215.127.367.461.347.8,2.68,6.753,3.608,8.968.557,1.315.981,1.518,1.287,1.586a2.683,2.683,0,0,0,.608.063c.114,0,.186.015.186.117,0,.117-.127.146-.662.146s-1.592,0-2.758-.029c-.26-.015-.437-.015-.437-.117s.057-.117.205-.129a.243.243,0,0,0,.127-.34l-1.162-3.084a.144.144,0,0,0-.147-.106Z" transform="translate(0 -1252)" fill="#00759c"/><path d="M1550.012,2620.1c0,1.867,0,2.873.306,3.135.245.22.622.322,1.768.322.765,0,1.335-.012,1.7-.406a1.873,1.873,0,0,0,.377-.88c.016-.128.046-.218.159-.218s.12.073.12.25a11.862,11.862,0,0,1-.224,1.679c-.086.311-.155.391-.918.391-1.047,0-1.8-.026-2.46-.043-.659-.037-1.179-.049-1.782-.049-.158,0-.478,0-.83.012s-.712.037-1.005.037c-.184,0-.29-.049-.29-.15,0-.073.057-.116.234-.116a2.678,2.678,0,0,0,.524-.056c.29-.059.361-.379.426-.8.066-.613.066-1.768.066-3.1v-2.569c0-2.216,0-2.622-.031-3.089-.029-.5-.143-.727-.624-.829a2.044,2.044,0,0,0-.481-.045c-.157,0-.244-.029-.244-.129s.1-.132.321-.132c.68,0,1.6.039,2,.039.348,0,1.411-.039,1.983-.039.2,0,.305.027.305.132s-.084.129-.265.129a3.6,3.6,0,0,0-.566.045c-.4.073-.513.324-.543.829-.024.467-.024.873-.024,3.089Z" transform="translate(0 -1252)" fill="#00759c"/><path d="M1517.531,2617.559c0-2.213,0-2.623-.029-3.087-.03-.5-.174-.747-.5-.819a2.148,2.148,0,0,0-.524-.06c-.143,0-.231-.028-.231-.144,0-.087.114-.119.349-.119.552,0,1.472.045,1.9.045.36,0,1.223-.045,1.777-.045.189,0,.305.032.305.119,0,.116-.09.144-.23.144a2.845,2.845,0,0,0-.443.044c-.389.068-.512.326-.542.835-.024.464-.024.874-.024,3.087v2.57c0,1.412,0,2.561.054,3.191.048.4.148.657.582.713a6.487,6.487,0,0,0,.746.063c.163,0,.235.039.235.113,0,.1-.116.145-.278.145-.959,0-1.881-.043-2.272-.043-.338,0-1.258.043-1.84.043-.187,0-.291-.043-.291-.145,0-.074.06-.113.232-.113a2.393,2.393,0,0,0,.524-.063c.293-.056.377-.3.422-.73.074-.613.074-1.762.074-3.174Z" transform="translate(0 -1252)" fill="#00759c"/><path d="M1556.967,2624.177c-.232-.093-.279-.171-.279-.491,0-.8.06-1.674.072-1.911.022-.22.061-.38.174-.38.138,0,.149.13.149.244a3.05,3.05,0,0,0,.132.756,2.006,2.006,0,0,0,2.082,1.462,1.768,1.768,0,0,0,1.955-1.66c0-.715-.218-1.382-1.429-2.332l-.673-.523c-1.595-1.253-2.158-2.276-2.158-3.459,0-1.6,1.34-2.755,3.372-2.755a6.987,6.987,0,0,1,1.937.247c.131.031.206.074.206.173,0,.191-.052.618-.052,1.753,0,.323-.051.437-.163.437s-.145-.088-.145-.259a1.817,1.817,0,0,0-.382-.965,1.857,1.857,0,0,0-1.589-.717,1.534,1.534,0,0,0-1.736,1.5c0,.676.335,1.185,1.549,2.1l.408.3c1.759,1.326,2.389,2.332,2.389,3.722a2.937,2.937,0,0,1-1.372,2.532,4.192,4.192,0,0,1-2.32.6A5.012,5.012,0,0,1,1556.967,2624.177Z" transform="translate(0 -1252)" fill="#00759c"/><path d="M1484.141,2617.555c0-2.209,0-2.625-.032-3.088-.029-.492-.145-.731-.629-.834a3.215,3.215,0,0,0-.566-.044c-.166,0-.25-.024-.25-.13s.1-.133.318-.133c.393,0,.819.02,1.185.02s.714.023.921.023c.463,0,3.36,0,3.638-.012.284-.031.511-.059.633-.085a1.1,1.1,0,0,1,.229-.063c.072,0,.091.063.091.137a9.1,9.1,0,0,0-.12.945c-.009.147-.041.787-.075.961-.007.076-.043.162-.141.162s-.131-.068-.131-.2a1.543,1.543,0,0,0-.085-.529c-.1-.263-.248-.438-.98-.52-.247-.035-1.782-.062-2.071-.062-.074,0-.1.041-.1.144v3.69c0,.1.014.16.1.16.315,0,1.994,0,2.332-.031a1.026,1.026,0,0,0,.7-.213c.1-.118.156-.2.231-.2.057,0,.1.036.1.12s-.052.323-.113,1.061c-.018.293-.06.879-.06.979,0,.119,0,.279-.129.279-.1,0-.129-.057-.129-.129a5.057,5.057,0,0,0-.063-.525c-.068-.292-.279-.51-.819-.569-.273-.035-1.719-.044-2.063-.044-.074,0-.088.056-.088.145v1.151c0,.5-.018,1.837,0,2.261.025,1.007.258,1.225,1.746,1.225a3.719,3.719,0,0,0,1.373-.175c.381-.178.551-.481.654-1.08.027-.16.06-.216.16-.216s.114.112.114.259a11.7,11.7,0,0,1-.184,1.618c-.1.383-.235.383-.786.383-1.1,0-1.9-.031-2.527-.044-.63-.03-1.08-.043-1.513-.043-.16,0-.486,0-.836.013-.331,0-.715.03-1.005.03-.191,0-.292-.043-.292-.149,0-.07.059-.119.231-.119a2.592,2.592,0,0,0,.529-.053c.293-.06.366-.384.422-.8.078-.61.078-1.758.078-3.108Z" transform="translate(0 -1252)" fill="#00759c"/><path d="M1493.377,2617.476c0-2.191,0-2.593-.03-3.053-.031-.491-.15-.722-.624-.821a2.961,2.961,0,0,0-.559-.043c-.163,0-.247-.028-.247-.129s.1-.132.316-.132c.766,0,1.671.048,2.1.048.347,0,1.25-.048,1.77-.048.212,0,.316.028.316.132s-.088.129-.228.129a2.242,2.242,0,0,0-.418.043c-.39.074-.506.318-.532.821-.029.46-.029.862-.029,3.053v2.012c0,2.091.414,2.971,1.119,3.544a2.666,2.666,0,0,0,1.8.589,2.825,2.825,0,0,0,1.992-.777c.785-.787.828-2.088.828-3.569v-1.8c0-2.191,0-2.593-.025-3.053-.027-.491-.151-.722-.621-.821a2.83,2.83,0,0,0-.514-.043c-.164,0-.246-.028-.246-.129s.095-.132.3-.132c.733,0,1.635.048,1.651.048.172,0,1.08-.048,1.642-.048.2,0,.3.028.3.132s-.088.129-.263.129a2.19,2.19,0,0,0-.413.043c-.392.074-.507.318-.538.821-.028.46-.028.862-.028,3.053v1.537c0,1.6-.15,3.3-1.365,4.337a4.317,4.317,0,0,1-3,1.037,4.626,4.626,0,0,1-3.194-1c-.737-.66-1.276-1.729-1.276-3.815Z" transform="translate(0 -1252)" fill="#00759c"/><path d="M1444.961,2613.539c.041-.242.127-.375.24-.375s.207.07.392.447l3.929,8.12,3.918-8.217c.115-.237.185-.35.317-.35s.213.147.265.447l1.3,8.893c.131.908.274,1.328.708,1.457a2.7,2.7,0,0,0,.887.143c.132,0,.232.016.232.1,0,.115-.17.158-.367.158-.361,0-2.351-.043-2.931-.086-.324-.033-.412-.072-.412-.161,0-.073.056-.114.165-.159.078-.027.122-.217.063-.619l-.863-6.333h-.056l-3.142,6.54c-.324.672-.4.8-.535.8s-.27-.291-.5-.719c-.338-.664-1.478-2.865-1.651-3.272-.13-.3-.993-2.115-1.495-3.193h-.063l-.745,5.73a5.223,5.223,0,0,0-.045.674c0,.272.185.405.433.461a2.487,2.487,0,0,0,.608.071c.112,0,.218.031.218.1,0,.125-.131.158-.351.158-.605,0-1.252-.043-1.507-.043-.277,0-.97.043-1.426.043-.144,0-.259-.033-.259-.158,0-.074.082-.1.228-.1a1.835,1.835,0,0,0,.432-.043c.4-.084.523-.649.588-1.135Z" transform="translate(0 -1252)" fill="#00759c"/><path d="M1413.051,2617.942c.048,0,.084-.024.084-.1v-.31c0-2.224,0-2.642-.025-3.1-.032-.5-.143-.736-.63-.841a3.571,3.571,0,0,0-.571-.041c-.163,0-.251-.026-.251-.13s.1-.133.313-.133c.789,0,1.709.045,2.1.045.359,0,1.28-.045,1.85-.045.206,0,.308.03.308.133s-.089.13-.265.13a3.26,3.26,0,0,0-.423.041c-.4.077-.509.325-.54.841-.027.463-.027.881-.027,3.1v2.576c0,1.35,0,2.51.07,3.139.046.408.129.736.574.793a5.769,5.769,0,0,0,.742.061c.162,0,.235.039.235.113,0,.1-.108.15-.289.15-.955,0-1.876-.045-2.289-.045-.338,0-1.258.045-1.833.045-.205,0-.3-.045-.3-.15,0-.074.055-.113.226-.113a2.33,2.33,0,0,0,.532-.061c.3-.057.365-.385.417-.808.075-.614.075-1.774.075-3.124v-1.288a.081.081,0,0,0-.084-.087h-5.6c-.041,0-.084.014-.084.087v1.288c0,1.35,0,2.51.076,3.139.039.408.128.736.565.793a6.054,6.054,0,0,0,.758.061c.158,0,.222.039.222.113,0,.1-.113.15-.289.15-.949,0-1.872-.045-2.281-.045-.342,0-1.26.045-1.845.045-.2,0-.3-.045-.3-.15,0-.074.065-.113.233-.113a2.252,2.252,0,0,0,.526-.061c.3-.057.366-.385.422-.808.075-.614.075-1.774.075-3.124v-2.576c0-2.224,0-2.642-.024-3.1-.034-.5-.146-.736-.635-.841a3.5,3.5,0,0,0-.567-.041c-.158,0-.251-.026-.251-.13s.1-.133.306-.133c.8,0,1.713.045,2.118.045.346,0,1.269-.045,1.837-.045.208,0,.3.03.3.133s-.077.13-.254.13a3.13,3.13,0,0,0-.427.041c-.394.077-.512.325-.543.841-.03.463-.03.881-.03,3.1v.31c0,.073.043.1.084.1Z" transform="translate(0 -1252)" fill="#00759c"/><path d="M1377.435,2594.876c.057,2.317.45,3.085,1.038,3.29a4.658,4.658,0,0,0,1.547.208c.322,0,.5.06.5.24,0,.238-.264.289-.68.289-1.926,0-3.115-.081-3.681-.081-.264,0-1.659.081-3.2.081-.389,0-.661-.024-.661-.289,0-.18.182-.24.479-.24a5.158,5.158,0,0,0,1.336-.147c.771-.235.9-1.094.921-3.675l.268-17.55c0-.592.091-1.008.382-1.008.334,0,.6.385,1.1.922.357.384,4.864,5.211,9.192,9.514,2.009,2.015,6.019,6.282,6.518,6.758h.146l-.293-13.309c-.033-1.809-.293-2.375-1-2.669a4.935,4.935,0,0,0-1.574-.176c-.357,0-.473-.094-.473-.269,0-.234.32-.265.766-.265,1.54,0,2.96.088,3.587.088.327,0,1.453-.088,2.905-.088.388,0,.682.031.682.265,0,.175-.174.269-.532.269a3.224,3.224,0,0,0-.891.09c-.83.232-1.064.858-1.1,2.513l-.318,18.711c0,.648-.117.915-.387.915-.33,0-.692-.32-1.01-.649-1.872-1.782-5.655-5.665-8.742-8.717-3.233-3.2-6.528-6.907-7.061-7.47h-.087Z" transform="translate(0 -1252)" fill="#00759c"/><path d="M1422.947,2588.267c0-6.64-3.824-10.763-8.688-10.763-3.416,0-7.288,1.9-7.288,9.285,0,6.16,3.4,11.053,9.094,11.053C1418.147,2597.842,1422.947,2596.832,1422.947,2588.267Zm-20.072-.561c0-5.067,3.355-11.62,12.24-11.62,7.386,0,11.983,4.3,11.983,11.088s-4.743,12.148-12.278,12.148C1406.316,2599.322,1402.875,2592.949,1402.875,2587.706Z" transform="translate(0 -1252)" fill="#00759c"/><path d="M1433.352,2579.4c-.678-1.626-1.179-1.954-2.251-2.254a4.731,4.731,0,0,0-1.161-.114c-.261,0-.353-.094-.353-.269,0-.234.331-.265.773-.265,1.575,0,3.261.088,4.3.088.744,0,2.165-.088,3.647-.088.353,0,.683.061.683.265s-.177.269-.442.269a2.134,2.134,0,0,0-1.153.2.708.708,0,0,0-.3.623,8.781,8.781,0,0,0,.679,2.284l5.1,13.461H1443c1.27-3.262,5.122-12.809,5.835-14.764a3.775,3.775,0,0,0,.267-1.1.571.571,0,0,0-.386-.566,4.047,4.047,0,0,0-1.183-.146c-.271,0-.507-.032-.507-.24,0-.233.266-.294.83-.294,1.482,0,2.73.088,3.108.088.508,0,1.9-.088,2.79-.088.388,0,.627.061.627.265s-.183.269-.479.269a2.591,2.591,0,0,0-1.455.355c-.387.269-.827.767-1.63,2.666-1.152,2.792-1.953,4.388-3.555,8.039-1.9,4.322-3.285,7.555-3.94,9.039-.763,1.719-.944,2.189-1.366,2.189-.381,0-.559-.419-1.124-1.8Z" transform="translate(0 -1252)" fill="#00759c"/><path d="M1466.835,2589.688c.145,0,.178-.088.145-.173l-2.67-7.324c-.029-.121-.054-.268-.142-.268s-.146.147-.184.268l-2.718,7.293c-.031.116,0,.2.116.2Zm-6.055,1.49c-.147,0-.2.056-.257.23l-1.6,4.241a5.764,5.764,0,0,0-.452,1.811c0,.532.265.914,1.185.914h.449c.348,0,.443.06.443.24,0,.238-.178.289-.5.289-.946,0-2.22-.081-3.148-.081-.321,0-1.951.081-3.491.081-.388,0-.567-.051-.567-.289,0-.18.125-.24.354-.24.273,0,.688-.026.922-.054,1.362-.185,1.932-1.187,2.522-2.671l7.442-18.615c.361-.861.529-1.19.824-1.19.27,0,.443.267.744.95.715,1.633,5.457,13.731,7.346,18.236,1.131,2.665,1.989,3.079,2.616,3.231a6.652,6.652,0,0,0,1.246.113c.234,0,.384.034.384.24,0,.238-.266.289-1.366.289-1.064,0-3.23,0-5.6-.051-.531-.03-.891-.03-.891-.238,0-.18.118-.24.417-.266a.476.476,0,0,0,.259-.684l-2.375-6.282a.263.263,0,0,0-.283-.2Z" transform="translate(0 -1252)" fill="#00759c"/><path d="M1487.73,2587.436c0,.329.053.449.264.537a7.73,7.73,0,0,0,2.25.294,3,3,0,0,0,2.1-.5c.887-.648,1.75-2.018,1.75-4.447,0-4.209-2.789-5.421-4.535-5.421a6.357,6.357,0,0,0-1.569.115c-.211.058-.264.181-.264.415Zm-3.5-2.346c0-4.5,0-5.33-.07-6.279-.056-1.006-.286-1.485-1.269-1.687a6.1,6.1,0,0,0-1.154-.09c-.329,0-.508-.063-.508-.269s.214-.265.656-.265c1.571,0,3.433.088,4.058.088,1.013,0,3.266-.088,4.184-.088a9.474,9.474,0,0,1,5.452,1.276,5.127,5.127,0,0,1,2.015,4.058c0,2.2-.919,4.211-3.916,6.641,2.637,3.322,4.687,5.959,6.436,7.8a5.912,5.912,0,0,0,3.318,2.014,4.537,4.537,0,0,0,.83.087c.236,0,.358.091.358.24,0,.238-.207.289-.567.289h-2.812a6.08,6.08,0,0,1-3.173-.555c-1.275-.684-2.4-2.075-4.063-4.362-1.185-1.63-2.547-3.642-2.935-4.089a.632.632,0,0,0-.535-.209l-2.576-.056c-.151,0-.229.056-.229.233v.42c0,2.756,0,5.1.139,6.342.09.859.266,1.508,1.157,1.634a13.8,13.8,0,0,0,1.451.113c.241,0,.362.091.362.24,0,.208-.212.289-.595.289-1.719,0-3.917-.081-4.365-.081-.561,0-2.423.081-3.609.081-.385,0-.6-.081-.6-.289,0-.149.121-.24.475-.24a4.836,4.836,0,0,0,1.067-.113c.6-.126.742-.775.865-1.634.15-1.246.15-3.586.15-6.316Z" transform="translate(0 -1252)" fill="#00759c"/><path d="M1514.111,2578.156l-4.416.119c-1.718.059-2.431.214-2.874.861a3.527,3.527,0,0,0-.5,1.037c-.063.238-.149.356-.335.356-.2,0-.259-.143-.259-.474,0-.474.561-3.174.625-3.406.085-.381.172-.563.351-.563a7.409,7.409,0,0,0,1.276.356c.857.089,1.99.146,2.968.146h11.729a12.9,12.9,0,0,0,2.849-.295c.215,0,.241.178.241.623,0,.621-.083,2.665-.083,3.44-.031.3-.094.471-.273.471-.242,0-.295-.143-.332-.594l-.023-.324c-.065-.773-.86-1.6-3.5-1.663l-3.731-.09v12.155c0,2.73,0,5.07.147,6.346.091.829.273,1.478,1.154,1.6a12.461,12.461,0,0,0,1.512.113c.325,0,.48.091.48.24,0,.208-.242.289-.567.289-1.958,0-3.825-.081-4.655-.081-.673,0-2.551.081-3.739.081-.378,0-.589-.081-.589-.289,0-.149.115-.24.475-.24a4.956,4.956,0,0,0,1.072-.113c.588-.126.765-.775.857-1.634.142-1.246.142-3.586.142-6.316Z" transform="translate(0 -1252)" fill="#00759c"/><path d="M1535.545,2585.09c0-4.5,0-5.33-.06-6.279-.063-1.006-.35-1.511-1.005-1.663a4.506,4.506,0,0,0-1.07-.114c-.3,0-.47-.063-.47-.3,0-.177.233-.238.712-.238,1.128,0,2.987.088,3.853.088.741,0,2.489-.088,3.62-.088.381,0,.621.061.621.238,0,.233-.177.3-.474.3a5.036,5.036,0,0,0-.9.09c-.8.146-1.027.652-1.093,1.687-.057.949-.057,1.782-.057,6.279v5.221c0,2.877,0,5.213.123,6.494.086.8.292,1.33,1.177,1.456a12.579,12.579,0,0,0,1.518.113c.321,0,.469.091.469.24,0,.208-.239.289-.567.289-1.951,0-3.821-.081-4.625-.081-.681,0-2.54.081-3.732.081-.385,0-.593-.081-.593-.289,0-.149.119-.24.478-.24a4.88,4.88,0,0,0,1.064-.113c.6-.126.773-.627.86-1.483.148-1.254.148-3.59.148-6.467Z" transform="translate(0 -1252)" fill="#00759c"/><path d="M1550.951,2598.555c-.471-.207-.554-.358-.554-1.006,0-1.631.117-3.41.146-3.887.029-.444.113-.772.354-.772.266,0,.3.273.3.505a5.958,5.958,0,0,0,.27,1.511,4.078,4.078,0,0,0,4.239,3c2.665,0,3.968-1.808,3.968-3.382,0-1.457-.447-2.847-2.9-4.743l-1.369-1.062c-3.255-2.555-4.383-4.625-4.383-7.029,0-3.261,2.726-5.6,6.845-5.6a14.356,14.356,0,0,1,3.943.5c.273.061.419.15.419.352,0,.386-.124,1.253-.124,3.564,0,.644-.086.886-.32.886-.206,0-.292-.18-.292-.534a3.646,3.646,0,0,0-.778-1.956,3.753,3.753,0,0,0-3.231-1.452c-2.2,0-3.53,1.275-3.53,3.056,0,1.357.679,2.4,3.143,4.268l.83.625c3.566,2.748,4.866,4.736,4.866,7.552a5.963,5.963,0,0,1-2.79,5.16,8.528,8.528,0,0,1-4.718,1.213A10.3,10.3,0,0,1,1550.951,2598.555Z" transform="translate(0 -1252)" fill="#00759c"/><path d="M1331.983,2600.874c-16.453-1.258-21.442-10.716-15.941-21.361,2.972-5.735,7.506-11.906,2.1-17.611-.149-.188-.028-.3.2-.2,12.3,4.905,5.906,14.809,3.8,18.912-4.143,8.084-1.5,17.907,9.838,20.014C1332.234,2600.688,1332.219,2600.9,1331.983,2600.874Z" transform="translate(0 -1252)" fill="#e84e0f"/><path d="M1334.184,2591.854l2.781-34.381-6.53-.01,3.518,34.391C1333.973,2592.073,1334.164,2592.065,1334.184,2591.854Z" transform="translate(0 -1252)" fill="#00759c"/><path d="M1341.619,2574.542c4.069,3.2,10.69,20.962-5.474,26.081-.262.068-.25.266,0,.248,25.716-3.223,16.884-21.679,5.7-26.539C1341.547,2574.184,1341.4,2574.372,1341.619,2574.542Z" transform="translate(0 -1252)" fill="#f9b000"/></g></svg>