<svg xmlns="http://www.w3.org/2000/svg" width="97.522" height="90" viewBox="0 0 97.522 90"><path d="M96.035-61.992a7.8,7.8,0,0,0-3.457-2.52,9.358,9.358,0,0,1-.293,3.34L74.707-3.34C74.063-1.23,71.543,0,69.375,0H15.293C12.07,0,8.027-.7,6.855-4.1c-.469-1.289-.41-1.816.059-2.52A2.719,2.719,0,0,1,9.141-7.5H60.059c7.441,0,8.965-1.992,11.719-11.016L87.832-71.6a8.624,8.624,0,0,0-1.055-7.617A8.111,8.111,0,0,0,80.1-82.5H35.508a13.34,13.34,0,0,0-2.988.527l.059-.176c-7.441-2.109-7.91,5.918-10.371,9.551-.938,1.348-2.344,2.52-2.578,3.633-.176,1.055.41,2.051.293,3.047a30.843,30.843,0,0,1-4.1,10.605c-.879,1.172-2.168,1.758-2.578,3.105-.352.938.234,2.285.117,3.516-.293,2.754-2.344,7.969-3.926,10.664-.586,1.055-1.7,1.875-1.992,2.988-.293,1,.293,2.285,0,3.4A41.841,41.841,0,0,1,3.047-20.918C2.109-19.336.879-18.34.645-16.934c-.117.7.41,1.465.352,2.4C.938-13.125.7-11.953.586-10.781A10.852,10.852,0,0,0,.7-3.34C2.871,2.754,9.258,7.5,15.234,7.5H69.316a12.8,12.8,0,0,0,11.66-8.848L97.09-54.434A8.717,8.717,0,0,0,96.035-61.992Zm-62.344.117,1.23-3.75A2.823,2.823,0,0,1,37.383-67.5H73.008A1.312,1.312,0,0,1,74.3-65.625l-1.23,3.75A2.823,2.823,0,0,1,70.606-60H34.981A1.312,1.312,0,0,1,33.691-61.875Zm-4.863,15,1.23-3.75A2.823,2.823,0,0,1,32.52-52.5H68.145a1.312,1.312,0,0,1,1.289,1.875l-1.23,3.75A2.823,2.823,0,0,1,65.742-45H30.117A1.312,1.312,0,0,1,28.828-46.875Z" transform="translate(0.015 82.5)" fill="#f36c68"/></svg>