<svg xmlns="http://www.w3.org/2000/svg" width="57.013" height="57.013" viewBox="0 0 57.013 57.013"><path d="M62.292-10.27a4.654,4.654,0,0,0-1.344-3.263L46.839-27.643,60.949-41.752a4.654,4.654,0,0,0,1.344-3.263,4.654,4.654,0,0,0-1.344-3.263l-6.527-6.527a4.654,4.654,0,0,0-3.263-1.344A4.654,4.654,0,0,0,47.9-54.806L33.786-40.7,19.676-54.806a4.654,4.654,0,0,0-3.263-1.344,4.654,4.654,0,0,0-3.263,1.344L6.623-48.279a4.654,4.654,0,0,0-1.344,3.263,4.654,4.654,0,0,0,1.344,3.263L20.732-27.643,6.623-13.533A4.654,4.654,0,0,0,5.279-10.27,4.654,4.654,0,0,0,6.623-7.007L13.15-.48A4.654,4.654,0,0,0,16.413.864,4.654,4.654,0,0,0,19.676-.48L33.786-14.589,47.9-.48A4.654,4.654,0,0,0,51.159.864,4.654,4.654,0,0,0,54.422-.48l6.527-6.527A4.654,4.654,0,0,0,62.292-10.27Z" transform="translate(-5.279 56.15)" fill="#f36c68"/></svg>